<svg xmlns:dc="http://purl.org/dc/elements/1.1/" xmlns:cc="http://creativecommons.org/ns#" xmlns:rdf="http://www.w3.org/1999/02/22-rdf-syntax-ns#" xmlns:svg="http://www.w3.org/2000/svg" xmlns="http://www.w3.org/2000/svg">
  <symbol id="arrow-down" viewBox="0 0 512 512">
    <path d="M374.108,373.328c-7.829-7.792-20.492-7.762-28.284,0.067L276,443.557V20c0-11.046-8.954-20-20-20
        c-11.046,0-20,8.954-20,20v423.558l-69.824-70.164c-7.792-7.829-20.455-7.859-28.284-0.067c-7.83,7.793-7.859,20.456-0.068,28.285
        l104,104.504c0.006,0.007,0.013,0.012,0.019,0.018c7.792,7.809,20.496,7.834,28.314,0.001c0.006-0.007,0.013-0.012,0.019-0.018
        l104-104.504C381.966,393.785,381.939,381.121,374.108,373.328z" />
  </symbol>
  <symbol id="arrow-up" viewBox="0 0 512 512">
    <path d="M374.176,110.386l-104-104.504c-0.006-0.006-0.013-0.011-0.019-0.018c-7.818-7.832-20.522-7.807-28.314,0.002
        c-0.006,0.006-0.013,0.011-0.019,0.018l-104,104.504c-7.791,7.829-7.762,20.493,0.068,28.285
        c7.829,7.792,20.492,7.762,28.284-0.067L236,68.442V492c0,11.046,8.954,20,20,20c11.046,0,20-8.954,20-20V68.442l69.824,70.162
        c7.792,7.829,20.455,7.859,28.284,0.067C381.939,130.878,381.966,118.214,374.176,110.386z" />
  </symbol>
</svg>